<svg xmlns="http://www.w3.org/2000/svg" width="16" height="16" viewBox="0 0 16 16"><g fill-rule="evenodd"><path fill="#F5EA30" d="M13.4 0C14.8 0 16 1.1 16 2.5v10.9c0 1.4-1.2 2.6-2.6 2.6H2.5A2.6 2.6 0 0 1 0 13.4V2.5C0 1.1 1.1 0 2.5 0h10.9"/><path fill="#FFFFFE" d="m8 13.5-.1-.1.1.1c-.8 0-1.3-.4-1.7-.7-.3-.2-.6-.4-.9-.4l-.5-.1-.7.1H4l-.2-.1V12l-.2-.3c-1.1-.2-1.4-.4-1.5-.6V11l.1-.1c1.7-.3 2.4-2 2.5-2.1v-.5c-.1-.3-.5-.4-.7-.5l-.2-.1c-.5-.2-.5-.4-.5-.5 0-.1.3-.3.5-.3l.1.1.6.1.4-.1-.1-.4c0-.8-.1-1.7.2-2.3a2.9 2.9 0 0 1 2.8-1.8l.2-.1h.1c.4 0 2 .2 2.8 1.9.3.6.2 1.5.1 2.3V7l.3.1.6-.1.2-.1.2.1c.2 0 .3.1.3.3 0 .1-.1.3-.5.4l-.2.1c-.3.1-.6.2-.8.5l.1.5c0 .1.8 1.8 2.5 2.1l.1.1v.1c-.1.2-.4.4-1.5.6l-.2.3-.1.3-.1.1h-.3l-.6-.1-.5.1c-.3 0-.6.2-.9.4-.5.3-.9.7-1.6.7"/><path fill="#0B0C0A" d="M8.1 2.3H7.8c-.5 0-2.2.2-2.9 1.9-.3.6-.2 1.6-.2 2.5v.2l-.2.1-.6-.2h-.1c-.3 0-.6.2-.6.4-.1.2 0 .4.6.7h.1c.3.1.6.2.7.4v.5h-.1s-.7 1.7-2.3 2c-.2 0-.3.1-.2.2v.1c.1.3.6.5 1.6.7v.3l.1.3s.1.2.3.2l.3-.1h1.1c.3 0 .5.2.8.4.4.3.9.7 1.7.7H8c.7 0 1.2-.4 1.7-.7.2-.2.5-.4.8-.4h1.1l.3.1.3-.3v-.2l.1-.3c1-.2 1.5-.4 1.6-.7V11l-.2-.2c-1.6-.3-2.3-2-2.4-2v-.5c.1-.2.4-.3.6-.4h.2c.4-.2.6-.4.6-.6 0-.2-.1-.4-.4-.4l-.2-.1h-.2l-.6.2-.2-.1.1-.2c0-.9.1-1.9-.2-2.5a3.3 3.3 0 0 0-2.9-1.9zm0 .3c.4 0 2 .1 2.7 1.7.2.6.2 1.6.1 2.3v.5l.4.1h.1l.6-.1H12.3l.2.2s-.1.2-.5.3l-.1.1c-.3.1-.7.2-.9.5l.1.7c0 .1.8 1.8 2.6 2.1-.1.1-.3.4-1.4.5-.2.1-.3.3-.3.5l-.1.3h-.2l-.7-.1h-.5l-1 .5c-.4.3-.8.6-1.5.6h-.1c-.7 0-1.1-.3-1.5-.6l-1-.5h-.5l-.7.1H3.9V12c-.1-.2-.1-.4-.3-.5-1.2-.1-1.4-.4-1.4-.5 1.7-.3 2.5-2 2.6-2.1v-.7c-.1-.3-.5-.4-.8-.5l-.1-.1c-.4-.1-.5-.3-.5-.3l.4-.2.7.1.4-.1H5v-.5c-.1-.7-.2-1.7.1-2.3.7-1.6 2.3-1.7 2.7-1.7H8.1z"/></g></svg>