<svg xmlns="http://www.w3.org/2000/svg" width="16" height="16" viewBox="0 0 16 16">
    <g transform="translate(0.8, 0)" fill-rule="nonzero">
        <path d="M12.7,3.3 C11.2,3.3 9.9,2.0 9.9,0.4 C9.9,0.1 9.7,0 9.4,0 L7.0,0 C6.8,0 6.6,0.1 6.6,0.4 L6.6,10.1 C6.6,11.1 5.8,11.8 4.9,11.8 C4.0,11.8 3.2,11.1 3.2,10.1 C3.2,9.2 4.0,8.4 4.9,8.4 C5.2,8.4 5.4,8.2 5.4,8.0 L5.4,5.6 C5.4,5.4 5.2,5.2 4.9,5.2 C2.2,5.2 0,7.4 0,10.1 C0,12.9 2.2,15.1 4.9,15.1 C7.6,15.1 9.9,12.9 9.9,10.1 L9.9,5.8 C10.7,6.3 11.7,6.5 12.7,6.5 C13.0,6.5 13.2,6.3 13.2,6.1 L13.2,3.7 C13.2,3.5 13.0,3.3 12.7,3.3 Z" fill="#77F9F0" style="mix-blend-mode: darken;"></path>
        <path d="M13.4,4.1 C11.8,4.1 10.5,2.8 10.5,1.3 C10.5,1.0 10.3,0.8 10.1,0.8 L7.7,0.8 C7.5,0.8 7.3,1.0 7.3,1.3 L7.3,11.0 C7.3,11.9 6.5,12.7 5.6,12.7 C4.6,12.7 3.9,11.9 3.9,11.0 C3.9,10.1 4.6,9.3 5.6,9.3 C5.8,9.3 6.0,9.1 6.0,8.9 L6.0,6.5 C6.0,6.2 5.8,6.0 5.6,6.0 C2.8,6.0 0.6,8.3 0.6,11.0 C0.6,13.7 2.8,16 5.6,16 C8.3,16 10.5,13.7 10.5,11.0 L10.5,6.7 C11.4,7.2 12.4,7.4 13.4,7.4 C13.6,7.4 13.8,7.2 13.8,7.0 L13.8,4.6 C13.8,4.3 13.6,4.1 13.4,4.1 Z" fill="#E9404B" style="mix-blend-mode: darken;"></path>
    </g>
</svg>