<svg width="16px" height="16px" viewBox="0 0 16 16" xmlns="http://www.w3.org/2000/svg">
    <g fill-rule="evenodd" transform="translate(0, 2.4)">
        <path fill="#D9252A" d="M15.5,1.8 C15.4,1.1 14.8,0.6 14.1,0.4 C12.9,0.1 7.9,0.1 7.9,0.1 C7.9,0.1 2.9,0.1 1.7,0.4 C1.0,0.6 0.5,1.1 0.3,1.8 C0,3.1 0,5.7 0,5.7 C0,5.7 0,8.2 0.3,9.5 C0.5,10.2 1.0,10.7 1.7,10.9 C2.9,11.2 7.9,11.2 7.9,11.2 C7.9,11.2 12.9,11.2 14.1,10.9 C14.8,10.7 15.4,10.2 15.5,9.5 C15.9,8.2 15.9,5.7 15.9,5.7 C15.9,5.7 15.9,3.1 15.5,1.8"></path>
        <polyline fill="#FFFFFE" points="6.3 8.0 10.5 5.7 6.3 3.3 6.3 8.0"></polyline>
    </g>
</svg>