<?xml version="1.0" encoding="UTF-8"?>
<svg id="Layer_1" xmlns="http://www.w3.org/2000/svg" version="1.1" viewBox="0 0 350 120">
  <!-- Generator: Adobe Illustrator 29.8.2, SVG Export Plug-In . SVG Version: 2.1.1 Build 3)  -->
  <defs>
    <style>
      .st0 {
        fill: #ff7112;
      }

      .st1 {
        fill: #fccc12;
      }

      .st2 {
        fill: #6e55dc;
      }

      .st3 {
        fill: #fff;
      }

      .st4 {
        fill: #069de0;
      }

      .st5 {
        fill: #05ac3f;
      }

      .st6 {
        fill: #ef1541;
      }
    </style>
  </defs>
  <path class="st2" d="M96.3,15.1c-5.7,0-11,3.2-12.9,8.3-.8,2-1.1,4.1-.9,6.2h5.9c2.4,0,3.9,1.3,3.9,2.1-6.2,2.4-8.6,5.7-8.3,8.3l5.5,38.9,19.3-44.5c1.3-3,1.6-5.5.6-9.1-.9-3.4-3-6.8-7.6-9-1.6-.7-3.7-1.2-5.4-1.2Z"/>
  <path class="st6" d="M63.7,15.1c-1.8,0-3.8.4-5.4,1.1-4.6,2.2-6.8,5.7-7.7,9.1-.9,3.6-.3,6.8.7,9.2l19.3,44.4,6.9-48.3c.3-2.4,0-4.9-.8-7.2-2-5.1-7-8.3-13-8.3Z"/>
  <path class="st0" d="M29.9,36.8c-1.5.9-3,2.4-4,3.9-2.6,4.2-2.8,9-1.8,12.1,1.1,3.3,3.1,5.6,5.8,7.3l39.1,26.3-19-43.4c-1-2.2-2.7-4.2-4.7-5.6-4.4-3.1-10.7-3.4-15.4-.6Z"/>
  <path class="st1" d="M13.7,74.1c-.8,1.6-1.2,3.6-1.2,5.4.1,5,1.8,8.3,5.2,11,2,1.6,5.7,3,8.8,3h45.5s-37.9-25.5-37.9-25.5c-1.3-.9-4.1-2.4-7.8-2.4-3.1,0-5.9,1-8.1,2.7-2.9,2.2-3.8,4.1-4.7,5.8Z"/>
  <path class="st4" d="M130.1,36.8c1.5.9,3,2.4,4,3.9,2.6,4.2,2.8,9,1.8,12.1-1.1,3.3-3.1,5.6-5.8,7.3l-39.1,26.3,19-43.4c1-2.2,2.7-4.2,4.7-5.6,4.4-3.1,10.7-3.4,15.4-.6Z"/>
  <path class="st5" d="M146.4,74.1c.8,1.6,1.2,3.6,1.2,5.4-.1,5-1.8,8.3-5.2,11-2,1.6-5.7,3-8.8,3h-45.7s38-25.5,38-25.5c1.3-.9,4.1-2.4,8-2.4s5.8,1,8,2.7c2.9,2.2,3.7,4.1,4.6,5.8Z"/>
  <path class="st3" d="M311.8,36.4c-16.4,0-30.3,13.1-30.3,29s1.8,12.8,7.3,19.1c4.9,5.7,12.5,10.1,23,10.4,13.2,0,19.4-5.2,25.7-10.5l-8.4-9.9c-2.3,1.9-4.1,3.6-6.5,5-3,1.6-5.7,2.4-10.7,2.4-10.6,0-17.4-8.3-17.4-16.5s7.8-16,17.4-16,10.7,2.5,14.4,6.5l9.2-9.1c-6.4-7-14.2-10.4-23.6-10.4ZM160.6,37.9v55.6h12.1v-36.2l26.8,36.2h12.9v-55.6h-12v36.1l-26.8-36.1h-13ZM223.3,37.9v55.6h32.8c3.9,0,9.1-1.1,12.4-3.4,2-1.4,3.6-3,4.7-5.5,1.3-2.9,1.8-5.9,1.8-8.2,0-5.6-2.2-9.4-8.3-12.8,1.4-.8,3-1.9,4.2-3.4,1.3-1.7,2.1-3.5,2.1-6.4,0-10.4-8.8-15.8-17-15.8h-32.8ZM235,48.3h18.4c5.7,0,7.2,2.4,7.2,5.3s-.6,2.9-1.8,3.8c-.8.6-2.5,1.3-3.7,1.3h-20s0-10.5,0-10.5ZM235,69.2h18.3c3,0,5.2.5,6.9,1.6,1.6,1.1,2.4,2.9,2.4,5.1s-.8,3.7-2.2,4.8c-1.7,1.3-3.6,1.8-6.8,1.8h-18.5v-13.4Z"/>
</svg>