<?xml version="1.0" encoding="UTF-8"?>
<svg id="svg566" xmlns="http://www.w3.org/2000/svg" xmlns:xlink="http://www.w3.org/1999/xlink" viewBox="0 0 130.21 40">
  <defs>
    <style>
      .cls-1 {
        fill: #ff7112;
      }

      .cls-2 {
        fill: #fccc12;
      }

      .cls-3 {
        fill: url(#linear-gradient-7);
      }

      .cls-4 {
        fill: url(#linear-gradient-5);
      }

      .cls-5 {
        fill: url(#linear-gradient-6);
      }

      .cls-6 {
        fill: url(#linear-gradient-9);
      }

      .cls-7 {
        fill: url(#linear-gradient-4);
      }

      .cls-8 {
        fill: url(#linear-gradient-3);
      }

      .cls-9 {
        fill: url(#linear-gradient-2);
      }

      .cls-10 {
        fill: #eeefef;
      }

      .cls-11 {
        fill: url(#linear-gradient);
      }

      .cls-12 {
        fill: #6e55dc;
      }

      .cls-13 {
        fill: #fff;
      }

      .cls-14 {
        fill: url(#linear-gradient-10);
      }

      .cls-15 {
        fill: url(#linear-gradient-11);
      }

      .cls-16 {
        fill: url(#linear-gradient-12);
      }

      .cls-17 {
        fill: url(#linear-gradient-13);
      }

      .cls-18 {
        fill: url(#linear-gradient-19);
      }

      .cls-19 {
        fill: url(#linear-gradient-14);
      }

      .cls-20 {
        fill: url(#linear-gradient-20);
      }

      .cls-21 {
        fill: url(#linear-gradient-15);
      }

      .cls-22 {
        fill: url(#linear-gradient-16);
      }

      .cls-23 {
        fill: url(#linear-gradient-17);
      }

      .cls-24 {
        fill: url(#linear-gradient-18);
      }

      .cls-25 {
        fill: #069de0;
      }

      .cls-26 {
        fill: #05ac3f;
      }

      .cls-27 {
        fill: #ef1541;
      }

      .cls-28 {
        fill: url(#linear-gradient-8);
        fill-opacity: .2;
      }
    </style>
    <linearGradient id="linear-gradient" x1="-787.68" y1="187.64" x2="-785.73" y2="189.41" gradientTransform="translate(4035.38 989.61) scale(5.12 -5.12)" gradientUnits="userSpaceOnUse">
      <stop offset="0" stop-color="#fff"/>
      <stop offset=".5" stop-color="#fff"/>
      <stop offset="1" stop-color="#d7d9d9"/>
    </linearGradient>
    <linearGradient id="linear-gradient-2" x1="-787.42" y1="189.31" x2="-786.56" y2="187.5" gradientTransform="translate(4035.38 989.61) scale(5.12 -5.12)" gradientUnits="userSpaceOnUse">
      <stop offset="0" stop-color="#fff"/>
      <stop offset="1" stop-color="#c7c7c7"/>
    </linearGradient>
    <linearGradient id="linear-gradient-3" x1="-787.99" y1="187.94" x2="-787.45" y2="188.16" gradientTransform="translate(4035.38 989.61) scale(5.12 -5.12)" gradientUnits="userSpaceOnUse">
      <stop offset="0" stop-color="#f3f4f4"/>
      <stop offset=".97" stop-color="#f1f2f2" stop-opacity="0"/>
    </linearGradient>
    <linearGradient id="linear-gradient-4" x1="-781.66" y1="189.06" x2="-783.77" y2="189.14" gradientTransform="translate(4035.38 989.61) scale(5.12 -5.12)" gradientUnits="userSpaceOnUse">
      <stop offset="0" stop-color="#d1d3d4"/>
      <stop offset="1" stop-color="#fff"/>
    </linearGradient>
    <linearGradient id="linear-gradient-5" x1="-783.23" y1="187.9" x2="-783.04" y2="190.54" gradientTransform="translate(4035.38 989.61) scale(5.12 -5.12)" gradientUnits="userSpaceOnUse">
      <stop offset=".08" stop-color="#fff"/>
      <stop offset=".49" stop-color="#fff"/>
      <stop offset="1" stop-color="#d1d3d4"/>
    </linearGradient>
    <linearGradient id="linear-gradient-6" x1="-784.02" y1="187.53" x2="-782.01" y2="191.24" gradientTransform="translate(4035.38 989.61) scale(5.12 -5.12)" gradientUnits="userSpaceOnUse">
      <stop offset="0" stop-color="#d1d3d4"/>
      <stop offset=".18" stop-color="#d1d3d4"/>
      <stop offset=".59" stop-color="#fff"/>
    </linearGradient>
    <linearGradient id="linear-gradient-7" x1="-780.39" y1="187.58" x2="-779.12" y2="190.96" gradientTransform="translate(4035.38 989.61) scale(5.12 -5.12)" gradientUnits="userSpaceOnUse">
      <stop offset=".1" stop-color="#d1d3d4"/>
      <stop offset=".71" stop-color="#fff"/>
    </linearGradient>
    <linearGradient id="linear-gradient-8" x1="-778.26" y1="190" x2="-779.38" y2="189.42" gradientTransform="translate(4035.38 989.61) scale(5.12 -5.12)" gradientUnits="userSpaceOnUse">
      <stop offset="0" stop-color="#000" stop-opacity=".81"/>
      <stop offset="1" stop-color="#000" stop-opacity="0"/>
    </linearGradient>
    <linearGradient id="linear-gradient-9" x1="-779.83" y1="187.79" x2="-779.24" y2="191.13" gradientTransform="translate(4035.38 989.61) scale(5.12 -5.12)" gradientUnits="userSpaceOnUse">
      <stop offset=".06" stop-color="#fff"/>
      <stop offset=".54" stop-color="#f5f6f6"/>
      <stop offset=".76" stop-color="#d1d3d4"/>
      <stop offset=".89" stop-color="#eaeaea"/>
    </linearGradient>
    <linearGradient id="linear-gradient-10" x1="-777.93" y1="189.27" x2="-778.34" y2="189.27" gradientTransform="translate(4035.38 989.61) scale(5.12 -5.12)" gradientUnits="userSpaceOnUse">
      <stop offset="0" stop-color="#f6f7f7"/>
      <stop offset="1" stop-color="#fff"/>
    </linearGradient>
    <linearGradient id="linear-gradient-11" x1="-775.49" y1="187.89" x2="-776.17" y2="189.68" gradientTransform="translate(4035.38 989.61) scale(5.12 -5.12)" gradientUnits="userSpaceOnUse">
      <stop offset="0" stop-color="#fff"/>
      <stop offset=".29" stop-color="#fff"/>
      <stop offset=".66" stop-color="#eee"/>
      <stop offset=".91" stop-color="#d1d3d4"/>
    </linearGradient>
    <linearGradient id="linear-gradient-12" x1="-777.03" y1="189.51" x2="-775.56" y2="189.16" gradientTransform="translate(4035.38 989.61) scale(5.12 -5.12)" gradientUnits="userSpaceOnUse">
      <stop offset="0" stop-color="#fff" stop-opacity=".59"/>
      <stop offset="1" stop-color="#fff" stop-opacity="0"/>
    </linearGradient>
    <linearGradient id="linear-gradient-13" x1="-776" y1="187.45" x2="-776.24" y2="191.36" gradientTransform="translate(4035.38 989.61) scale(5.12 -5.12)" gradientUnits="userSpaceOnUse">
      <stop offset="0" stop-color="#d1d3d4"/>
      <stop offset=".18" stop-color="#d1d3d4"/>
      <stop offset=".33" stop-color="#e9eaea"/>
      <stop offset=".64" stop-color="#fff"/>
    </linearGradient>
    <linearGradient id="linear-gradient-14" x1="-773.82" y1="187.41" x2="-772.14" y2="190.91" gradientTransform="translate(4035.38 989.61) scale(5.12 -5.12)" gradientUnits="userSpaceOnUse">
      <stop offset=".05" stop-color="#d1d3d4"/>
      <stop offset=".66" stop-color="#fcfcfc"/>
      <stop offset=".94" stop-color="#fff"/>
    </linearGradient>
    <linearGradient id="linear-gradient-15" x1="-773.4" y1="187.74" x2="-772.55" y2="190.47" gradientTransform="translate(4035.38 989.61) scale(5.12 -5.12)" gradientUnits="userSpaceOnUse">
      <stop offset=".05" stop-color="#fff"/>
      <stop offset=".21" stop-color="#fff"/>
      <stop offset=".91" stop-color="#d3d5d6"/>
    </linearGradient>
    <linearGradient id="linear-gradient-16" x1="-799.49" y1="187.77" x2="-798.55" y2="190.85" gradientTransform="translate(4187.06 989.61) scale(5.12 -5.12)" gradientUnits="userSpaceOnUse">
      <stop offset="0" stop-color="#fff"/>
      <stop offset=".29" stop-color="#fff"/>
      <stop offset=".66" stop-color="#eee"/>
      <stop offset=".91" stop-color="#d1d3d4"/>
    </linearGradient>
    <linearGradient id="linear-gradient-17" x1="-799.02" y1="187.45" x2="-799.25" y2="191.36" gradientTransform="translate(4187.06 989.61) scale(5.12 -5.12)" gradientUnits="userSpaceOnUse">
      <stop offset="0" stop-color="#d1d3d4"/>
      <stop offset=".18" stop-color="#d1d3d4"/>
      <stop offset=".33" stop-color="#e9eaea"/>
      <stop offset=".64" stop-color="#fff"/>
    </linearGradient>
    <linearGradient id="linear-gradient-18" x1="-766.09" y1="189.27" x2="-765.69" y2="187.81" gradientTransform="translate(4035.38 989.61) scale(5.12 -5.12)" gradientUnits="userSpaceOnUse">
      <stop offset="0" stop-color="#fff"/>
      <stop offset=".39" stop-color="#f1f2f2"/>
      <stop offset=".73" stop-color="#e6e7e7"/>
      <stop offset="1" stop-color="#d3d5d6"/>
    </linearGradient>
    <linearGradient id="linear-gradient-19" x1="-765.17" y1="190.77" x2="-767.19" y2="188.64" gradientTransform="translate(4035.38 989.61) scale(5.12 -5.12)" gradientUnits="userSpaceOnUse">
      <stop offset="0" stop-color="#eeefef"/>
      <stop offset=".39" stop-color="#f1f2f2"/>
      <stop offset=".73" stop-color="#e8e9ea"/>
      <stop offset="1" stop-color="#e6e7e8"/>
    </linearGradient>
    <linearGradient id="linear-gradient-20" x1="-767.54" y1="192.39" x2="-767.54" y2="187.81" gradientTransform="translate(4035.38 989.61) scale(5.12 -5.12)" gradientUnits="userSpaceOnUse">
      <stop offset="0" stop-color="#f1f2f2"/>
      <stop offset=".39" stop-color="#f1f2f2"/>
      <stop offset=".73" stop-color="#e6e7e7"/>
      <stop offset="1" stop-color="#d3d5d6"/>
    </linearGradient>
  </defs>
  <path id="use2" class="cls-25" d="M127.81,26.27c-1.32,0-2.4,1.07-2.4,2.4,0,1.32,1.07,2.4,2.4,2.4,1.32,0,2.4-1.07,2.4-2.4,0-1.32-1.07-2.4-2.4-2.4Z"/>
  <path id="use4-3" class="cls-12" d="M127.81,19.7c-1.32,0-2.4,1.07-2.4,2.4,0,1.32,1.07,2.4,2.4,2.4,1.32,0,2.4-1.07,2.4-2.4,0-1.32-1.07-2.4-2.4-2.4Z"/>
  <path id="use6-4" class="cls-26" d="M127.81,32.83c-1.32,0-2.4,1.07-2.4,2.4,0,1.32,1.07,2.4,2.4,2.4,1.32,0,2.4-1.07,2.4-2.4,0-1.32-1.07-2.4-2.4-2.4Z"/>
  <path id="use8-2" class="cls-27" d="M127.81,13.13c-1.32,0-2.4,1.07-2.4,2.4,0,1.32,1.07,2.4,2.4,2.4,1.32,0,2.4-1.07,2.4-2.4,0-1.32-1.07-2.4-2.4-2.4Z"/>
  <path id="use10-4" class="cls-1" d="M127.81,6.57c-1.32,0-2.4,1.07-2.4,2.4,0,1.32,1.07,2.4,2.4,2.4,1.32,0,2.4-1.07,2.4-2.4,0-1.32-1.07-2.4-2.4-2.4Z"/>
  <path id="path12" class="cls-2" d="M127.81,0c-1.32,0-2.4,1.07-2.4,2.4,0,1.32,1.07,2.4,2.4,2.4,1.32,0,2.4-1.07,2.4-2.4,0-1.32-1.07-2.4-2.4-2.4Z"/>
  <path id="path14-8" class="cls-11" d="M8.33,14.12c-3.65,0-6.47,2.86-6.47,6.49v19.39h2.1v-19.34c0-2.66,2-4.59,4.4-4.59s4.4,1.93,4.4,4.59c0,1.68-.82,3.52-2.91,4.34l-5.89,2.31v1.95s.1.11.1.11l6.25-2.6c1.88-.82,2.51-1.43,2.52-1.44,1.29-1.23,2.02-2.93,2.02-4.71,0-3.58-2.9-6.49-6.49-6.49-.01,0-.02,0-.03,0h0Z"/>
  <path id="use16-9" class="cls-9" d="M8.36,12.29C3.75,12.3,0,16.04,0,20.66v19.34h1.9v-19.39c0-3.57,2.89-6.46,6.47-6.46s6.47,2.89,6.47,6.46c0,1.77-.73,3.47-2.02,4.69,0,0-.62.61-2.51,1.44l-6.24,2.62,1.35,1.44,5.82-2.28c3.33-1.3,5.49-4.28,5.49-7.85,0-4.62-3.75-8.35-8.36-8.36h0Z"/>
  <path id="use18-0" class="cls-8" d="M8.36,12.29C3.75,12.3,0,16.04,0,20.66v19.34h1.9v-19.39c0-3.57,2.89-6.46,6.47-6.46s6.47,2.89,6.47,6.46c0,1.77-.73,3.47-2.02,4.69,0,0-.62.61-2.51,1.44l-6.24,2.62,1.35,1.44,5.82-2.28c3.33-1.3,5.49-4.28,5.49-7.85,0-4.62-3.75-8.35-8.36-8.36h0Z"/>
  <path id="path20-0" class="cls-7" d="M22.15,22.41h12.19l-.02-.04-1.92-1.86-10.62.02c0,.65.13,1.29.37,1.88h0Z"/>
  <path id="path22" class="cls-13" d="M21.82,20.6h10.53s-2.01-1.8-2.01-1.8h-8.17c-.23.57-.35,1.19-.36,1.81h0Z"/>
  <path id="path24" class="cls-4" d="M26.34,25.2c-1.03,0-2.03-.35-2.81-1.02h0s-.02-.02-.02-.02c-.54-.47-.97-1.07-1.23-1.74-.23-.58-.35-1.19-.34-1.81,0-.62.12-1.24.35-1.81l.06-.14.03-.06c.25-.56.62-1.06,1.07-1.47l.09-.08h0c.78-.67,1.78-1.03,2.81-1.03,1.89,0,3.32,1.14,3.92,2.78l2.13,1.84c.05-1.81-.6-3.51-1.77-4.71-1.13-1.16-2.69-1.79-4.36-1.79-3.55,0-6.49,2.92-6.49,6.47s2.92,6.48,6.47,6.48c2.08,0,4.02-1.01,5.22-2.66l-1.49-1.03c-.38.63-1.6,1.81-3.64,1.81h0Z"/>
  <path id="path26" class="cls-5" d="M26.25,27.07c-3.48,0-6.46-2.89-6.46-6.47s3-6.47,6.46-6.47c1.61,0,3.22.63,4.35,1.8,1.19,1.21,1.8,2.87,1.75,4.67l1.98,1.81c.13-.6.19-1.2.19-1.81,0-4.61-3.58-8.36-8.19-8.36-4.61,0-8.35,3.75-8.36,8.36,0,4.61,3.75,8.35,8.36,8.36,2.74,0,5.34-1.33,6.82-3.37l-1.69-1.17c-1.23,1.65-3.15,2.65-5.21,2.65h0Z"/>
  <path id="path28" class="cls-10" d="M48.71,14.24v-1.51h1.93v6.95l-.02-.15c-.19-1.74-1.02-3.92-1.92-5.29h0ZM49.52,25.57c-.25.53-.53.97-.81,1.4v1.51h1.93v-7.04l-.03.45c-.12,1.12-.5,2.44-1.1,3.68h0Z"/>
  <path id="use30-4" class="cls-3" d="M50.64,21.12v-.49l-.02-.57-.06.33.02.9c-.32,3.27-3.14,5.81-6.32,5.81-3.52,0-6.37-2.89-6.37-6.47s2.85-6.47,6.37-6.47c3.24,0,5.99,2.54,6.32,5.81l.05.65v-.92c-.02-1.53-.8-3.79-1.89-5.4l-.04-.07c-1.35-1.4-3.12-2-5-2-3.88,0-7.83,3.52-7.83,8.36s3.95,8.36,7.83,8.36c1.87,0,3.63-.59,4.97-1.97.95-1.3,2.01-3.92,1.96-5.87h0Z"/>
  <path id="use32" class="cls-28" d="M50.64,21.12v-.49l-.02-.57-.06.33.02.9c-.32,3.27-3.14,5.81-6.32,5.81-3.52,0-6.37-2.89-6.37-6.47s2.85-6.47,6.37-6.47c3.24,0,5.99,2.54,6.32,5.81l.05.65v-.92c-.02-1.53-.8-3.79-1.89-5.4l-.04-.07c-1.35-1.4-3.12-2-5-2-3.88,0-7.83,3.52-7.83,8.36s3.95,8.36,7.83,8.36c1.87,0,3.63-.59,4.97-1.97.95-1.3,2.01-3.92,1.96-5.87h0Z"/>
  <path id="path34-9" class="cls-6" d="M44.33,14.08c-3.52,0-6.44,2.94-6.44,6.54s2.73,6.56,6.44,6.56c3.52,0,6.38-2.95,6.38-6.55s-2.86-6.55-6.38-6.55h0ZM44.37,25.08c-2.51,0-4.42-2-4.42-4.53s1.95-4.53,4.42-4.53c2.49,0,4.33,2.07,4.34,4.56,0,2.53-1.83,4.49-4.34,4.49h0Z"/>
  <path id="path36" class="cls-14" d="M52.68,12.73h-2.03v15.75h2.03v-15.75Z"/>
  <path id="use38-5" class="cls-15" d="M62.57,16c1.63-.02,3.12.89,3.86,2.34l1.58-1.21c-1.17-1.92-3.21-3.11-5.43-3.11-3.53,0-6.44,2.98-6.44,6.62s2.92,6.65,6.44,6.65c2.24,0,4.31-1.23,5.47-3.18l-1.62-1.24c-.74,1.45-2.23,2.35-3.86,2.34-2.54,0-4.4-2.02-4.4-4.59s1.91-4.59,4.4-4.59h0Z"/>
  <path id="use40" class="cls-16" d="M62.57,16c1.63-.02,3.12.89,3.86,2.34l1.58-1.21c-1.17-1.92-3.21-3.11-5.43-3.11-3.53,0-6.44,2.98-6.44,6.62s2.92,6.65,6.44,6.65c2.24,0,4.31-1.23,5.47-3.18l-1.62-1.24c-.74,1.45-2.23,2.35-3.86,2.34-2.54,0-4.4-2.02-4.4-4.59s1.91-4.59,4.4-4.59h0Z"/>
  <path id="use42-2" class="cls-17" d="M62.58,27.24c-3.46,0-6.41-2.96-6.41-6.61s2.96-6.6,6.41-6.6c2.21,0,4.26,1.17,5.43,3.09l1.52-1.16c-1.55-2.33-4.16-3.73-6.96-3.73-4.61,0-8.35,3.75-8.36,8.36,0,4.61,3.75,8.35,8.36,8.36,2.8,0,5.41-1.4,6.96-3.73l-1.48-1.13c-1.17,1.96-3.3,3.15-5.47,3.15h0Z"/>
  <path id="path44" class="cls-19" d="M78.31,12.23c-4.61,0-8.35,3.75-8.36,8.36,0,4.61,3.75,8.35,8.36,8.36,4.61,0,8.35-3.75,8.36-8.36,0-4.61-3.75-8.35-8.36-8.36ZM78.31,26.93c-3.43,0-6.21-2.82-6.21-6.31s2.78-6.31,6.21-6.31,6.21,2.82,6.21,6.31-2.78,6.31-6.21,6.31h0Z"/>
  <path id="path46" class="cls-21" d="M78.31,13.99c-3.6,0-6.54,2.9-6.54,6.64s2.94,6.64,6.54,6.64,6.54-2.99,6.54-6.64-2.94-6.64-6.54-6.64h0ZM78.31,25.19c-2.54,0-4.4-2.02-4.4-4.59s1.91-4.59,4.4-4.59,4.4,2.02,4.4,4.59-1.86,4.59-4.4,4.59Z"/>
  <path id="use48" class="cls-22" d="M96.43,16c1.63-.02,3.12.89,3.86,2.34l1.58-1.21c-1.17-1.92-3.21-3.11-5.43-3.11-3.53,0-6.44,2.98-6.44,6.62s2.92,6.65,6.44,6.65c2.24,0,4.31-1.23,5.47-3.18l-1.62-1.24c-.74,1.45-2.23,2.35-3.86,2.34-2.54,0-4.4-2.02-4.4-4.59s1.91-4.59,4.4-4.59h0Z"/>
  <path id="use50-3" class="cls-23" d="M96.44,27.24c-3.46,0-6.41-2.96-6.41-6.61s2.96-6.6,6.41-6.6c2.21,0,4.26,1.17,5.43,3.09l1.52-1.16c-1.55-2.33-4.16-3.73-6.96-3.73-4.61,0-8.35,3.75-8.36,8.36,0,4.61,3.75,8.35,8.36,8.36,2.8,0,5.41-1.4,6.96-3.73l-1.48-1.13c-1.17,1.96-3.3,3.15-5.47,3.15h0Z"/>
  <path id="path52" class="cls-13" d="M108.86,4.15h-2.06v24.33h2.06V4.15Z"/>
  <path id="path54" class="cls-24" d="M112.42,20.26l-.04-.04-1.36,1.43.03.04h0s4.68,6.79,4.68,6.79h2.32l-5.64-8.21Z"/>
  <path id="path56" class="cls-13" d="M118,28.48h2.54l-6.1-8.44h-1.8s-.03-.01-.03-.01l-.23.25v.02s5.62,8.19,5.62,8.19h0ZM106.87,23.46h.02s10.06-10.73,10.06-10.73h-2.52l-5.56,6-1.99,4.69v.04h0Z"/>
  <path id="path58" class="cls-18" d="M119.54,12.73h-2.67l-10,10.72v.02l1.99.54,2.12-2.23,1.67-1.75,6.89-7.3Z"/>
  <path id="path60" class="cls-20" d="M106.87,4.15h-1.97v24.33h1.97V4.15Z"/>
</svg>