<?xml version="1.0" encoding="UTF-8"?>
<svg id="Layer_1" xmlns="http://www.w3.org/2000/svg" version="1.1" viewBox="0 0 400 120">
  <!-- Generator: Adobe Illustrator 29.8.2, SVG Export Plug-In . SVG Version: 2.1.1 Build 3)  -->
  <defs>
    <style>
      .st0 {
        fill: #fff;
      }

      .st0, .st1, .st2 {
        fill-rule: evenodd;
      }

      .st3 {
        fill: #c31010;
      }

      .st1 {
        fill: #911010;
      }

      .st2 {
        fill: #eb1010;
      }
    </style>
  </defs>
  <path class="st1" d="M88.5,59c.3,24.7-16.5,48.1-39.9,55.4-2.3.7-3.3,1-3.3-.7V44.9H14c-.7,0-1-.3-1-1V4c0-.7.3-1,1-1h17.8c34.3,0,56.7,29.3,56.7,56.1Z"/>
  <path class="st2" d="M45.6,59c-.3,24.7,16.5,48.1,39.9,55.4,2.3.7,3.3,1,3.3-.7V44.9h31.7c.7,0,1-.3,1-1V4c0-.7-.3-1-1-1h-17.8c-34.3,0-56.7,29.3-56.7,56.1h-.3Z"/>
  <path class="st3" d="M67.1,15.5c-13.5,10.9-21.4,27.7-21.4,43.9v1c0,17.1,8.6,33.6,21.4,44.5,13.2-10.9,21.4-27.4,21.4-44.2h0v-1.3c0-15.8-7.9-32.6-21.4-43.9Z"/>
  <path class="st0" d="M166,73.2h18.1v-1.3c0-2-1.3-3.3-3.3-3.3h-9.2v-7.9h8.9v-4.6h-8.9v-6.9h8.6c2,0,3.3-1.3,3.3-3.3v-1.3h-17.8v28l.3.7Z"/>
  <path class="st0" d="M230.3,73.2v-1.3c0-2-1.3-3.3-3.3-3.3h-9.2v-7.9h8.9v-4.6h-8.9v-6.9h8.6c2,0,3.3-1.3,3.3-3.3v-1.3h-17.8v28h18.1l.3.7Z"/>
  <path class="st0" d="M333.9,49.1c7.9-1,10.9,2.3,10.9,9.9s-3.3,10.2-10.9,9.6h0v-19.5h0ZM327.9,73.2h8.6c9.2,0,13.9-5.6,13.9-14.2,0-15.2-10.9-14.5-22.4-13.9,0,0,0,28,0,28Z"/>
  <path class="st0" d="M247.1,67.3h5.9l6.3-12.2v18.1h5.6v-28h-4c-2.6,0-3.3,1.6-4.3,3.6l-6.6,13.5-6.6-13.5c-1-2-1.6-3.6-4.3-3.6h-4v28h5.3v-18.1l6.3,12.2h.3Z"/>
  <path class="st0" d="M316.7,73.2h4.9v-24.7c0-2-1.3-3.3-3.3-3.3h-2v19.1l-9.6-15.8c-1-1.3-2-3.6-4-3.6h-3.3v28h5.3v-18.5l11.9,18.5v.3Z"/>
  <path class="st0" d="M207.2,71.9c0-2-1.3-3.3-3.3-3.3h-8.6v-20.4c0-2-1.3-3.3-3.3-3.3h-2.3v28h17.8v-1.3l-.3.3Z"/>
  <path class="st0" d="M368.1,48.8c5.6,0,6.9,5.9,6.9,10.6s-1.3,10.2-6.9,10.2-6.9-5.9-6.9-10.2,1.3-10.2,6.9-10.2v-.3ZM368.1,44.2c-8.9,0-12.9,6.6-12.9,14.8s3.6,14.8,12.9,14.8,12.9-6.6,12.9-14.8-4-14.8-12.9-14.8Z"/>
  <path class="st0" d="M271.2,44.9v17.8c0,7.3,3.3,10.9,10.9,10.9s11.2-3.6,11.2-10.9v-14.5c0-2-1.3-3.3-3.3-3.3h-2.3v18.8c0,3-2.3,5.6-5.3,5.6s-5.3-2.3-5.3-5.6v-15.2c0-2-1.3-3.3-3.3-3.3h-2.3l-.3-.3Z"/>
  <path class="st0" d="M152.2,73.2v-23.4h5.6c2,0,3.3-1.3,3.3-3.3v-1.3h-20.4c-2,0-3.3,1.3-3.3,3.3v1.3h8.9v23.4h5.9Z"/>
</svg>